<svg version="1.1" class="highcharts-root" style="font-family:&quot;Lucida Grande&quot;, &quot;Lucida Sans Unicode&quot;, Arial, Helvetica, sans-serif;font-size:12px;" xmlns="http://www.w3.org/2000/svg" width="319" height="336" viewBox="0 0 319 336"><desc>Created with Highcharts 7.2.1</desc><defs><clipPath id="highcharts-q88u7cx-1-"><rect x="0" y="0" width="228" height="215" fill="none"></rect></clipPath></defs><rect fill="#000" class="highcharts-background" x="0" y="0" width="319" height="336" rx="0" ry="0"></rect><rect fill="none" class="highcharts-plot-background" x="81" y="10" width="228" height="215"></rect><g class="highcharts-grid highcharts-xaxis-grid" data-z-index="1"><path fill="none" data-z-index="1" class="highcharts-grid-line" d="M 82.5 10 L 82.5 225" opacity="1"></path><path fill="none" data-z-index="1" class="highcharts-grid-line" d="M 223.5 10 L 223.5 225" opacity="1"></path><path fill="none" data-z-index="1" class="highcharts-grid-line" d="M 102.5 10 L 102.5 225" opacity="1"></path><path fill="none" data-z-index="1" class="highcharts-grid-line" d="M 122.5 10 L 122.5 225" opacity="1"></path><path fill="none" data-z-index="1" class="highcharts-grid-line" d="M 142.5 10 L 142.5 225" opacity="1"></path><path fill="none" data-z-index="1" class="highcharts-grid-line" d="M 162.5 10 L 162.5 225" opacity="1"></path><path fill="none" data-z-index="1" class="highcharts-grid-line" d="M 182.5 10 L 182.5 225" opacity="1"></path><path fill="none" data-z-index="1" class="highcharts-grid-line" d="M 202.5 10 L 202.5 225" opacity="1"></path><path fill="none" data-z-index="1" class="highcharts-grid-line" d="M 243.5 10 L 243.5 225" opacity="1"></path><path fill="none" data-z-index="1" class="highcharts-grid-line" d="M 263.5 10 L 263.5 225" opacity="1"></path><path fill="none" data-z-index="1" class="highcharts-grid-line" d="M 283.5 10 L 283.5 225" opacity="1"></path><path fill="none" data-z-index="1" class="highcharts-grid-line" d="M 303.5 10 L 303.5 225" opacity="1"></path></g><g class="highcharts-grid highcharts-yaxis-grid" data-z-index="1"><path fill="none" stroke="#444444" stroke-width="0.5" data-z-index="1" class="highcharts-grid-line" d="M 81 225.25 L 309 225.25" opacity="1"></path><path fill="none" stroke="#444444" stroke-width="0.5" data-z-index="1" class="highcharts-grid-line" d="M 81 153.25 L 309 153.25" opacity="1"></path><path fill="none" stroke="#444444" stroke-width="0.5" data-z-index="1" class="highcharts-grid-line" d="M 81 82.25 L 309 82.25" opacity="1"></path><path fill="none" stroke="#444444" stroke-width="0.5" data-z-index="1" class="highcharts-grid-line" d="M 81 9.75 L 309 9.75" opacity="1"></path></g><rect fill="none" class="highcharts-plot-border" data-z-index="1" x="81" y="10" width="228" height="215"></rect><g class="highcharts-axis highcharts-xaxis" data-z-index="2"><path fill="none" class="highcharts-axis-line" stroke="#ccd6eb" stroke-width="1" data-z-index="7" d="M 81 225.5 L 309 225.5"></path></g><g class="highcharts-axis highcharts-yaxis" data-z-index="2"><text x="25.912033081054688" data-z-index="7" text-anchor="middle" transform="translate(0,0) rotate(270 25.912033081054688 117.5)" class="highcharts-axis-title" style="color:#666666;fill:#666666;" y="117.5"><tspan>Number of Objects</tspan></text><path fill="none" class="highcharts-axis-line" data-z-index="7" d="M 81 10 L 81 225"></path></g><g class="highcharts-series-group" data-z-index="3"><g data-z-index="0.1" class="highcharts-series highcharts-series-0 highcharts-column-series highcharts-color-0 highcharts-tracker" transform="translate(81,10) scale(1 1)" clip-path="url(#highcharts-q88u7cx-1-)"><rect x="0" y="216" width="3" height="0" fill="#55865d" opacity="1" class="highcharts-point highcharts-color-0"></rect><rect x="4" y="216" width="2" height="0" fill="#55865d" opacity="1" class="highcharts-point highcharts-color-0"></rect><rect x="7" y="215" width="3" height="0" fill="#55865d" opacity="1" class="highcharts-point highcharts-color-0"></rect><rect x="10" y="215" width="3" height="0" fill="#55865d" opacity="1" class="highcharts-point highcharts-color-0"></rect><rect x="14" y="212" width="2" height="1" fill="#55865d" opacity="1" class="highcharts-point highcharts-color-0"></rect><rect x="17" y="206" width="3" height="5" fill="#55865d" opacity="1" class="highcharts-point highcharts-color-0"></rect><rect x="20" y="210" width="3" height="1" fill="#55865d" opacity="1" class="highcharts-point highcharts-color-0"></rect><rect x="24" y="200" width="2" height="10" fill="#55865d" opacity="1" class="highcharts-point highcharts-color-0"></rect><rect x="27" y="186" width="3" height="20" fill="#55865d" opacity="1" class="highcharts-point highcharts-color-0"></rect><rect x="31" y="179" width="2" height="25" fill="#55865d" opacity="1" class="highcharts-point highcharts-color-0"></rect><rect x="34" y="191" width="3" height="11" fill="#55865d" opacity="1" class="highcharts-point highcharts-color-0"></rect><rect x="37" y="193" width="3" height="9" fill="#55865d" opacity="1" class="highcharts-point highcharts-color-0"></rect><rect x="41" y="191" width="2" height="11" fill="#55865d" opacity="1" class="highcharts-point highcharts-color-0"></rect><rect x="44" y="195" width="3" height="8" fill="#55865d" opacity="1" class="highcharts-point highcharts-color-0"></rect><rect x="47" y="192" width="3" height="13" fill="#55865d" opacity="1" class="highcharts-point highcharts-color-0"></rect><rect x="51" y="189" width="2" height="16" fill="#55865d" opacity="1" class="highcharts-point highcharts-color-0"></rect><rect x="54" y="176" width="3" height="27" fill="#55865d" opacity="1" class="highcharts-point highcharts-color-0"></rect><rect x="57" y="189" width="3" height="15" fill="#55865d" opacity="1" class="highcharts-point highcharts-color-0"></rect><rect x="61" y="180" width="2" height="23" fill="#55865d" opacity="1" class="highcharts-point highcharts-color-0"></rect><rect x="64" y="167" width="3" height="36" fill="#55865d" opacity="1" class="highcharts-point highcharts-color-0"></rect><rect x="67" y="177" width="3" height="25" fill="#55865d" opacity="1" class="highcharts-point highcharts-color-0"></rect><rect x="71" y="177" width="2" height="24" fill="#55865d" opacity="1" class="highcharts-point highcharts-color-0"></rect><rect x="74" y="170" width="3" height="30" fill="#55865d" opacity="1" class="highcharts-point highcharts-color-0"></rect><rect x="77" y="174" width="3" height="25" fill="#55865d" opacity="1" class="highcharts-point highcharts-color-0"></rect><rect x="81" y="168" width="2" height="31" fill="#55865d" opacity="1" class="highcharts-point highcharts-color-0"></rect><rect x="84" y="174" width="3" height="26" fill="#55865d" opacity="1" class="highcharts-point highcharts-color-0"></rect><rect x="88" y="178" width="2" height="22" fill="#55865d" opacity="1" class="highcharts-point highcharts-color-0"></rect><rect x="91" y="173" width="3" height="27" fill="#55865d" opacity="1" class="highcharts-point highcharts-color-0"></rect><rect x="94" y="181" width="3" height="21" fill="#55865d" opacity="1" class="highcharts-point highcharts-color-0"></rect><rect x="98" y="175" width="2" height="27" fill="#55865d" opacity="1" class="highcharts-point highcharts-color-0"></rect><rect x="101" y="170" width="3" height="32" fill="#55865d" opacity="1" class="highcharts-point highcharts-color-0"></rect><rect x="104" y="146" width="3" height="54" fill="#55865d" opacity="1" class="highcharts-point highcharts-color-0"></rect><rect x="108" y="139" width="2" height="61" fill="#55865d" opacity="1" class="highcharts-point highcharts-color-0"></rect><rect x="111" y="174" width="3" height="27" fill="#55865d" opacity="1" class="highcharts-point highcharts-color-0"></rect><rect x="114" y="175" width="3" height="29" fill="#55865d" opacity="1" class="highcharts-point highcharts-color-0"></rect><rect x="118" y="189" width="2" height="14" fill="#55865d" opacity="1" class="highcharts-point highcharts-color-0"></rect><rect x="121" y="198" width="3" height="9" fill="#55865d" opacity="1" class="highcharts-point highcharts-color-0"></rect><rect x="124" y="201" width="3" height="5" fill="#55865d" opacity="1" class="highcharts-point highcharts-color-0"></rect><rect x="128" y="203" width="2" height="5" fill="#55865d" opacity="1" class="highcharts-point highcharts-color-0"></rect><rect x="131" y="198" width="3" height="11" fill="#55865d" opacity="1" class="highcharts-point highcharts-color-0"></rect><rect x="134" y="186" width="3" height="23" fill="#55865d" opacity="1" class="highcharts-point highcharts-color-0"></rect><rect x="138" y="187" width="2" height="21" fill="#55865d" opacity="1" class="highcharts-point highcharts-color-0"></rect><rect x="141" y="184" width="3" height="23" fill="#55865d" opacity="1" class="highcharts-point highcharts-color-0"></rect><rect x="145" y="186" width="2" height="19" fill="#55865d" opacity="1" class="highcharts-point highcharts-color-0"></rect><rect x="148" y="186" width="3" height="19" fill="#55865d" opacity="1" class="highcharts-point highcharts-color-0"></rect><rect x="151" y="179" width="3" height="28" fill="#55865d" opacity="1" class="highcharts-point highcharts-color-0"></rect><rect x="155" y="194" width="2" height="16" fill="#55865d" opacity="1" class="highcharts-point highcharts-color-0"></rect><rect x="158" y="201" width="3" height="9" fill="#55865d" opacity="1" class="highcharts-point highcharts-color-0"></rect><rect x="161" y="201" width="3" height="10" fill="#55865d" opacity="1" class="highcharts-point highcharts-color-0"></rect><rect x="165" y="196" width="2" height="15" fill="#55865d" opacity="1" class="highcharts-point highcharts-color-0"></rect><rect x="168" y="202" width="3" height="9" fill="#55865d" opacity="1" class="highcharts-point highcharts-color-0"></rect><rect x="171" y="162" width="3" height="49" fill="#55865d" opacity="1" class="highcharts-point highcharts-color-0"></rect><rect x="175" y="194" width="2" height="17" fill="#55865d" opacity="1" class="highcharts-point highcharts-color-0"></rect><rect x="178" y="188" width="3" height="23" fill="#55865d" opacity="1" class="highcharts-point highcharts-color-0"></rect><rect x="181" y="180" width="3" height="30" fill="#55865d" opacity="1" class="highcharts-point highcharts-color-0"></rect><rect x="185" y="182" width="2" height="28" fill="#55865d" opacity="1" class="highcharts-point highcharts-color-0"></rect><rect x="188" y="183" width="3" height="27" fill="#55865d" opacity="1" class="highcharts-point highcharts-color-0"></rect><rect x="191" y="167" width="3" height="39" fill="#55865d" opacity="1" class="highcharts-point highcharts-color-0"></rect><rect x="195" y="182" width="2" height="26" fill="#55865d" opacity="1" class="highcharts-point highcharts-color-0"></rect><rect x="198" y="197" width="3" height="11" fill="#55865d" opacity="1" class="highcharts-point highcharts-color-0"></rect><rect x="202" y="201" width="2" height="8" fill="#55865d" opacity="1" class="highcharts-point highcharts-color-0"></rect><rect x="205" y="198" width="3" height="8" fill="#55865d" opacity="1" class="highcharts-point highcharts-color-0"></rect><rect x="208" y="192" width="3" height="14" fill="#55865d" opacity="1" class="highcharts-point highcharts-color-0"></rect><rect x="212" y="186" width="2" height="18" fill="#55865d" opacity="1" class="highcharts-point highcharts-color-0"></rect><rect x="215" y="178" width="3" height="22" fill="#55865d" opacity="1" class="highcharts-point highcharts-color-0"></rect><rect x="218" y="39" width="3" height="145" fill="#55865d" opacity="1" class="highcharts-point highcharts-color-0"></rect><rect x="222" y="72" width="2" height="89" fill="#55865d" opacity="1" class="highcharts-point highcharts-color-0"></rect><rect x="225" y="104" width="3" height="43" fill="#55865d" opacity="1" class="highcharts-point highcharts-color-0"></rect></g><g data-z-index="0.1" class="highcharts-markers highcharts-series-0 highcharts-column-series highcharts-color-0" transform="translate(81,10) scale(1 1)" clip-path="none"></g><g data-z-index="0.1" class="highcharts-series highcharts-series-1 highcharts-column-series highcharts-color-1 highcharts-tracker" transform="translate(81,10) scale(1 1)" clip-path="url(#highcharts-q88u7cx-1-)" opacity="1"><rect x="0" y="216" width="3" height="0" fill="#b99639" opacity="1" class="highcharts-point highcharts-color-1"></rect><rect x="4" y="216" width="2" height="0" fill="#b99639" opacity="1" class="highcharts-point highcharts-color-1"></rect><rect x="7" y="215" width="3" height="0" fill="#b99639" opacity="1" class="highcharts-point highcharts-color-1"></rect><rect x="10" y="215" width="3" height="0" fill="#b99639" opacity="1" class="highcharts-point highcharts-color-1"></rect><rect x="14" y="213" width="2" height="1" fill="#b99639" opacity="1" class="highcharts-point highcharts-color-1"></rect><rect x="17" y="211" width="3" height="1" fill="#b99639" opacity="1" class="highcharts-point highcharts-color-1"></rect><rect x="20" y="211" width="3" height="2" fill="#b99639" opacity="1" class="highcharts-point highcharts-color-1"></rect><rect x="24" y="210" width="2" height="2" fill="#b99639" opacity="1" class="highcharts-point highcharts-color-1"></rect><rect x="27" y="206" width="3" height="4" fill="#b99639" opacity="1" class="highcharts-point highcharts-color-1"></rect><rect x="31" y="204" width="2" height="4" fill="#b99639" opacity="1" class="highcharts-point highcharts-color-1"></rect><rect x="34" y="202" width="3" height="5" fill="#b99639" opacity="1" class="highcharts-point highcharts-color-1"></rect><rect x="37" y="202" width="3" height="6" fill="#b99639" opacity="1" class="highcharts-point highcharts-color-1"></rect><rect x="41" y="202" width="2" height="6" fill="#b99639" opacity="1" class="highcharts-point highcharts-color-1"></rect><rect x="44" y="203" width="3" height="5" fill="#b99639" opacity="1" class="highcharts-point highcharts-color-1"></rect><rect x="47" y="205" width="3" height="4" fill="#b99639" opacity="1" class="highcharts-point highcharts-color-1"></rect><rect x="51" y="205" width="2" height="5" fill="#b99639" opacity="1" class="highcharts-point highcharts-color-1"></rect><rect x="54" y="203" width="3" height="6" fill="#b99639" opacity="1" class="highcharts-point highcharts-color-1"></rect><rect x="57" y="204" width="3" height="6" fill="#b99639" opacity="1" class="highcharts-point highcharts-color-1"></rect><rect x="61" y="203" width="2" height="6" fill="#b99639" opacity="1" class="highcharts-point highcharts-color-1"></rect><rect x="64" y="203" width="3" height="6" fill="#b99639" opacity="1" class="highcharts-point highcharts-color-1"></rect><rect x="67" y="202" width="3" height="7" fill="#b99639" opacity="1" class="highcharts-point highcharts-color-1"></rect><rect x="71" y="201" width="2" height="7" fill="#b99639" opacity="1" class="highcharts-point highcharts-color-1"></rect><rect x="74" y="200" width="3" height="8" fill="#b99639" opacity="1" class="highcharts-point highcharts-color-1"></rect><rect x="77" y="199" width="3" height="8" fill="#b99639" opacity="1" class="highcharts-point highcharts-color-1"></rect><rect x="81" y="199" width="2" height="8" fill="#b99639" opacity="1" class="highcharts-point highcharts-color-1"></rect><rect x="84" y="200" width="3" height="8" fill="#b99639" opacity="1" class="highcharts-point highcharts-color-1"></rect><rect x="88" y="200" width="2" height="8" fill="#b99639" opacity="1" class="highcharts-point highcharts-color-1"></rect><rect x="91" y="200" width="3" height="7" fill="#b99639" opacity="1" class="highcharts-point highcharts-color-1"></rect><rect x="94" y="202" width="3" height="5" fill="#b99639" opacity="1" class="highcharts-point highcharts-color-1"></rect><rect x="98" y="202" width="2" height="7" fill="#b99639" opacity="1" class="highcharts-point highcharts-color-1"></rect><rect x="101" y="202" width="3" height="7" fill="#b99639" opacity="1" class="highcharts-point highcharts-color-1"></rect><rect x="104" y="200" width="3" height="8" fill="#b99639" opacity="1" class="highcharts-point highcharts-color-1"></rect><rect x="108" y="200" width="2" height="8" fill="#b99639" opacity="1" class="highcharts-point highcharts-color-1"></rect><rect x="111" y="201" width="3" height="8" fill="#b99639" opacity="1" class="highcharts-point highcharts-color-1"></rect><rect x="114" y="204" width="3" height="6" fill="#b99639" opacity="1" class="highcharts-point highcharts-color-1"></rect><rect x="118" y="203" width="2" height="6" fill="#b99639" opacity="1" class="highcharts-point highcharts-color-1"></rect><rect x="121" y="207" width="3" height="4" fill="#b99639" opacity="1" class="highcharts-point highcharts-color-1"></rect><rect x="124" y="206" width="3" height="5" fill="#b99639" opacity="1" class="highcharts-point highcharts-color-1"></rect><rect x="128" y="208" width="2" height="4" fill="#b99639" opacity="1" class="highcharts-point highcharts-color-1"></rect><rect x="131" y="209" width="3" height="3" fill="#b99639" opacity="1" class="highcharts-point highcharts-color-1"></rect><rect x="134" y="209" width="3" height="3" fill="#b99639" opacity="1" class="highcharts-point highcharts-color-1"></rect><rect x="138" y="208" width="2" height="5" fill="#b99639" opacity="1" class="highcharts-point highcharts-color-1"></rect><rect x="141" y="207" width="3" height="6" fill="#b99639" opacity="1" class="highcharts-point highcharts-color-1"></rect><rect x="145" y="205" width="2" height="7" fill="#b99639" opacity="1" class="highcharts-point highcharts-color-1"></rect><rect x="148" y="205" width="3" height="6" fill="#b99639" opacity="1" class="highcharts-point highcharts-color-1"></rect><rect x="151" y="207" width="3" height="5" fill="#b99639" opacity="1" class="highcharts-point highcharts-color-1"></rect><rect x="155" y="210" width="2" height="3" fill="#b99639" opacity="1" class="highcharts-point highcharts-color-1"></rect><rect x="158" y="210" width="3" height="4" fill="#b99639" opacity="1" class="highcharts-point highcharts-color-1"></rect><rect x="161" y="211" width="3" height="3" fill="#b99639" opacity="1" class="highcharts-point highcharts-color-1"></rect><rect x="165" y="211" width="2" height="3" fill="#b99639" opacity="1" class="highcharts-point highcharts-color-1"></rect><rect x="168" y="211" width="3" height="3" fill="#b99639" opacity="1" class="highcharts-point highcharts-color-1"></rect><rect x="171" y="211" width="3" height="3" fill="#b99639" opacity="1" class="highcharts-point highcharts-color-1"></rect><rect x="175" y="211" width="2" height="3" fill="#b99639" opacity="1" class="highcharts-point highcharts-color-1"></rect><rect x="178" y="211" width="3" height="2" fill="#b99639" opacity="1" class="highcharts-point highcharts-color-1"></rect><rect x="181" y="210" width="3" height="3" fill="#b99639" opacity="1" class="highcharts-point highcharts-color-1"></rect><rect x="185" y="210" width="2" height="3" fill="#b99639" opacity="1" class="highcharts-point highcharts-color-1"></rect><rect x="188" y="210" width="3" height="3" fill="#b99639" opacity="1" class="highcharts-point highcharts-color-1"></rect><rect x="191" y="206" width="3" height="4" fill="#b99639" opacity="1" class="highcharts-point highcharts-color-1"></rect><rect x="195" y="208" width="2" height="2" fill="#b99639" opacity="1" class="highcharts-point highcharts-color-1"></rect><rect x="198" y="208" width="3" height="3" fill="#b99639" opacity="1" class="highcharts-point highcharts-color-1"></rect><rect x="202" y="209" width="2" height="3" fill="#b99639" opacity="1" class="highcharts-point highcharts-color-1"></rect><rect x="205" y="206" width="3" height="2" fill="#b99639" opacity="1" class="highcharts-point highcharts-color-1"></rect><rect x="208" y="206" width="3" height="4" fill="#b99639" opacity="1" class="highcharts-point highcharts-color-1"></rect><rect x="212" y="204" width="2" height="4" fill="#b99639" opacity="1" class="highcharts-point highcharts-color-1"></rect><rect x="215" y="200" width="3" height="4" fill="#b99639" opacity="1" class="highcharts-point highcharts-color-1"></rect><rect x="218" y="184" width="3" height="5" fill="#b99639" opacity="1" class="highcharts-point highcharts-color-1"></rect><rect x="222" y="161" width="2" height="6" fill="#b99639" opacity="1" class="highcharts-point highcharts-color-1"></rect><rect x="225" y="147" width="3" height="6" fill="#b99639" opacity="1" class="highcharts-point highcharts-color-1"></rect></g><g data-z-index="0.1" class="highcharts-markers highcharts-series-1 highcharts-column-series highcharts-color-1" transform="translate(81,10) scale(1 1)" clip-path="none" opacity="1"></g><g data-z-index="0.1" class="highcharts-series highcharts-series-2 highcharts-column-series highcharts-color-2 highcharts-tracker" transform="translate(81,10) scale(1 1)" clip-path="url(#highcharts-q88u7cx-1-)" opacity="1"><rect x="0" y="216" width="3" height="0" fill="#5e8bad" opacity="1" class="highcharts-point highcharts-color-2"></rect><rect x="4" y="216" width="2" height="0" fill="#5e8bad" opacity="1" class="highcharts-point highcharts-color-2"></rect><rect x="7" y="215" width="3" height="0" fill="#5e8bad" opacity="1" class="highcharts-point highcharts-color-2"></rect><rect x="10" y="215" width="3" height="0" fill="#5e8bad" opacity="1" class="highcharts-point highcharts-color-2"></rect><rect x="14" y="214" width="2" height="0" fill="#5e8bad" opacity="1" class="highcharts-point highcharts-color-2"></rect><rect x="17" y="212" width="3" height="0" fill="#5e8bad" opacity="1" class="highcharts-point highcharts-color-2"></rect><rect x="20" y="213" width="3" height="0" fill="#5e8bad" opacity="1" class="highcharts-point highcharts-color-2"></rect><rect x="24" y="212" width="2" height="0" fill="#5e8bad" opacity="1" class="highcharts-point highcharts-color-2"></rect><rect x="27" y="210" width="3" height="0" fill="#5e8bad" opacity="1" class="highcharts-point highcharts-color-2"></rect><rect x="31" y="208" width="2" height="1" fill="#5e8bad" opacity="1" class="highcharts-point highcharts-color-2"></rect><rect x="34" y="207" width="3" height="1" fill="#5e8bad" opacity="1" class="highcharts-point highcharts-color-2"></rect><rect x="37" y="208" width="3" height="0" fill="#5e8bad" opacity="1" class="highcharts-point highcharts-color-2"></rect><rect x="41" y="208" width="2" height="0" fill="#5e8bad" opacity="1" class="highcharts-point highcharts-color-2"></rect><rect x="44" y="208" width="3" height="1" fill="#5e8bad" opacity="1" class="highcharts-point highcharts-color-2"></rect><rect x="47" y="209" width="3" height="1" fill="#5e8bad" opacity="1" class="highcharts-point highcharts-color-2"></rect><rect x="51" y="210" width="2" height="1" fill="#5e8bad" opacity="1" class="highcharts-point highcharts-color-2"></rect><rect x="54" y="209" width="3" height="1" fill="#5e8bad" opacity="1" class="highcharts-point highcharts-color-2"></rect><rect x="57" y="210" width="3" height="0" fill="#5e8bad" opacity="1" class="highcharts-point highcharts-color-2"></rect><rect x="61" y="209" width="2" height="1" fill="#5e8bad" opacity="1" class="highcharts-point highcharts-color-2"></rect><rect x="64" y="209" width="3" height="1" fill="#5e8bad" opacity="1" class="highcharts-point highcharts-color-2"></rect><rect x="67" y="209" width="3" height="1" fill="#5e8bad" opacity="1" class="highcharts-point highcharts-color-2"></rect><rect x="71" y="208" width="2" height="1" fill="#5e8bad" opacity="1" class="highcharts-point highcharts-color-2"></rect><rect x="74" y="208" width="3" height="1" fill="#5e8bad" opacity="1" class="highcharts-point highcharts-color-2"></rect><rect x="77" y="207" width="3" height="1" fill="#5e8bad" opacity="1" class="highcharts-point highcharts-color-2"></rect><rect x="81" y="207" width="2" height="2" fill="#5e8bad" opacity="1" class="highcharts-point highcharts-color-2"></rect><rect x="84" y="208" width="3" height="1" fill="#5e8bad" opacity="1" class="highcharts-point highcharts-color-2"></rect><rect x="88" y="208" width="2" height="1" fill="#5e8bad" opacity="1" class="highcharts-point highcharts-color-2"></rect><rect x="91" y="207" width="3" height="2" fill="#5e8bad" opacity="1" class="highcharts-point highcharts-color-2"></rect><rect x="94" y="207" width="3" height="2" fill="#5e8bad" opacity="1" class="highcharts-point highcharts-color-2"></rect><rect x="98" y="209" width="2" height="2" fill="#5e8bad" opacity="1" class="highcharts-point highcharts-color-2"></rect><rect x="101" y="209" width="3" height="1" fill="#5e8bad" opacity="1" class="highcharts-point highcharts-color-2"></rect><rect x="104" y="208" width="3" height="1" fill="#5e8bad" opacity="1" class="highcharts-point highcharts-color-2"></rect><rect x="108" y="208" width="2" height="1" fill="#5e8bad" opacity="1" class="highcharts-point highcharts-color-2"></rect><rect x="111" y="209" width="3" height="1" fill="#5e8bad" opacity="1" class="highcharts-point highcharts-color-2"></rect><rect x="114" y="210" width="3" height="1" fill="#5e8bad" opacity="1" class="highcharts-point highcharts-color-2"></rect><rect x="118" y="209" width="2" height="1" fill="#5e8bad" opacity="1" class="highcharts-point highcharts-color-2"></rect><rect x="121" y="211" width="3" height="1" fill="#5e8bad" opacity="1" class="highcharts-point highcharts-color-2"></rect><rect x="124" y="211" width="3" height="1" fill="#5e8bad" opacity="1" class="highcharts-point highcharts-color-2"></rect><rect x="128" y="212" width="2" height="1" fill="#5e8bad" opacity="1" class="highcharts-point highcharts-color-2"></rect><rect x="131" y="212" width="3" height="1" fill="#5e8bad" opacity="1" class="highcharts-point highcharts-color-2"></rect><rect x="134" y="212" width="3" height="1" fill="#5e8bad" opacity="1" class="highcharts-point highcharts-color-2"></rect><rect x="138" y="213" width="2" height="0" fill="#5e8bad" opacity="1" class="highcharts-point highcharts-color-2"></rect><rect x="141" y="213" width="3" height="0" fill="#5e8bad" opacity="1" class="highcharts-point highcharts-color-2"></rect><rect x="145" y="212" width="2" height="0" fill="#5e8bad" opacity="1" class="highcharts-point highcharts-color-2"></rect><rect x="148" y="211" width="3" height="1" fill="#5e8bad" opacity="1" class="highcharts-point highcharts-color-2"></rect><rect x="151" y="212" width="3" height="0" fill="#5e8bad" opacity="1" class="highcharts-point highcharts-color-2"></rect><rect x="155" y="213" width="2" height="1" fill="#5e8bad" opacity="1" class="highcharts-point highcharts-color-2"></rect><rect x="158" y="214" width="3" height="0" fill="#5e8bad" opacity="1" class="highcharts-point highcharts-color-2"></rect><rect x="161" y="214" width="3" height="0" fill="#5e8bad" opacity="1" class="highcharts-point highcharts-color-2"></rect><rect x="165" y="214" width="2" height="0" fill="#5e8bad" opacity="1" class="highcharts-point highcharts-color-2"></rect><rect x="168" y="214" width="3" height="0" fill="#5e8bad" opacity="1" class="highcharts-point highcharts-color-2"></rect><rect x="171" y="214" width="3" height="0" fill="#5e8bad" opacity="1" class="highcharts-point highcharts-color-2"></rect><rect x="175" y="214" width="2" height="0" fill="#5e8bad" opacity="1" class="highcharts-point highcharts-color-2"></rect><rect x="178" y="213" width="3" height="0" fill="#5e8bad" opacity="1" class="highcharts-point highcharts-color-2"></rect><rect x="181" y="213" width="3" height="0" fill="#5e8bad" opacity="1" class="highcharts-point highcharts-color-2"></rect><rect x="185" y="213" width="2" height="0" fill="#5e8bad" opacity="1" class="highcharts-point highcharts-color-2"></rect><rect x="188" y="213" width="3" height="0" fill="#5e8bad" opacity="1" class="highcharts-point highcharts-color-2"></rect><rect x="191" y="210" width="3" height="0" fill="#5e8bad" opacity="1" class="highcharts-point highcharts-color-2"></rect><rect x="195" y="210" width="2" height="0" fill="#5e8bad" opacity="1" class="highcharts-point highcharts-color-2"></rect><rect x="198" y="211" width="3" height="0" fill="#5e8bad" opacity="1" class="highcharts-point highcharts-color-2"></rect><rect x="202" y="212" width="2" height="0" fill="#5e8bad" opacity="1" class="highcharts-point highcharts-color-2"></rect><rect x="205" y="208" width="3" height="0" fill="#5e8bad" opacity="1" class="highcharts-point highcharts-color-2"></rect><rect x="208" y="210" width="3" height="0" fill="#5e8bad" opacity="1" class="highcharts-point highcharts-color-2"></rect><rect x="212" y="208" width="2" height="0" fill="#5e8bad" opacity="1" class="highcharts-point highcharts-color-2"></rect><rect x="215" y="204" width="3" height="0" fill="#5e8bad" opacity="1" class="highcharts-point highcharts-color-2"></rect><rect x="218" y="189" width="3" height="0" fill="#5e8bad" opacity="1" class="highcharts-point highcharts-color-2"></rect><rect x="222" y="167" width="2" height="0" fill="#5e8bad" opacity="1" class="highcharts-point highcharts-color-2"></rect><rect x="225" y="153" width="3" height="0" fill="#5e8bad" opacity="1" class="highcharts-point highcharts-color-2"></rect></g><g data-z-index="0.1" class="highcharts-markers highcharts-series-2 highcharts-column-series highcharts-color-2" transform="translate(81,10) scale(1 1)" clip-path="none" opacity="1"></g><g data-z-index="0.1" class="highcharts-series highcharts-series-3 highcharts-column-series highcharts-color-3 highcharts-tracker" transform="translate(81,10) scale(1 1)" clip-path="url(#highcharts-q88u7cx-1-)" opacity="1"><rect x="0" y="216" width="3" height="0" fill="#d27878" opacity="1" class="highcharts-point highcharts-color-3"></rect><rect x="4" y="216" width="2" height="0" fill="#d27878" opacity="1" class="highcharts-point highcharts-color-3"></rect><rect x="7" y="215" width="3" height="1" fill="#d27878" opacity="1" class="highcharts-point highcharts-color-3"></rect><rect x="10" y="215" width="3" height="1" fill="#d27878" opacity="1" class="highcharts-point highcharts-color-3"></rect><rect x="14" y="214" width="2" height="2" fill="#d27878" opacity="1" class="highcharts-point highcharts-color-3"></rect><rect x="17" y="212" width="3" height="4" fill="#d27878" opacity="1" class="highcharts-point highcharts-color-3"></rect><rect x="20" y="213" width="3" height="3" fill="#d27878" opacity="1" class="highcharts-point highcharts-color-3"></rect><rect x="24" y="212" width="2" height="4" fill="#d27878" opacity="1" class="highcharts-point highcharts-color-3"></rect><rect x="27" y="210" width="3" height="6" fill="#d27878" opacity="1" class="highcharts-point highcharts-color-3"></rect><rect x="31" y="209" width="2" height="7" fill="#d27878" opacity="1" class="highcharts-point highcharts-color-3"></rect><rect x="34" y="208" width="3" height="8" fill="#d27878" opacity="1" class="highcharts-point highcharts-color-3"></rect><rect x="37" y="208" width="3" height="8" fill="#d27878" opacity="1" class="highcharts-point highcharts-color-3"></rect><rect x="41" y="208" width="2" height="8" fill="#d27878" opacity="1" class="highcharts-point highcharts-color-3"></rect><rect x="44" y="209" width="3" height="7" fill="#d27878" opacity="1" class="highcharts-point highcharts-color-3"></rect><rect x="47" y="210" width="3" height="6" fill="#d27878" opacity="1" class="highcharts-point highcharts-color-3"></rect><rect x="51" y="211" width="2" height="5" fill="#d27878" opacity="1" class="highcharts-point highcharts-color-3"></rect><rect x="54" y="210" width="3" height="6" fill="#d27878" opacity="1" class="highcharts-point highcharts-color-3"></rect><rect x="57" y="210" width="3" height="6" fill="#d27878" opacity="1" class="highcharts-point highcharts-color-3"></rect><rect x="61" y="210" width="2" height="6" fill="#d27878" opacity="1" class="highcharts-point highcharts-color-3"></rect><rect x="64" y="210" width="3" height="6" fill="#d27878" opacity="1" class="highcharts-point highcharts-color-3"></rect><rect x="67" y="210" width="3" height="6" fill="#d27878" opacity="1" class="highcharts-point highcharts-color-3"></rect><rect x="71" y="209" width="2" height="7" fill="#d27878" opacity="1" class="highcharts-point highcharts-color-3"></rect><rect x="74" y="209" width="3" height="7" fill="#d27878" opacity="1" class="highcharts-point highcharts-color-3"></rect><rect x="77" y="208" width="3" height="8" fill="#d27878" opacity="1" class="highcharts-point highcharts-color-3"></rect><rect x="81" y="209" width="2" height="7" fill="#d27878" opacity="1" class="highcharts-point highcharts-color-3"></rect><rect x="84" y="209" width="3" height="7" fill="#d27878" opacity="1" class="highcharts-point highcharts-color-3"></rect><rect x="88" y="209" width="2" height="7" fill="#d27878" opacity="1" class="highcharts-point highcharts-color-3"></rect><rect x="91" y="209" width="3" height="7" fill="#d27878" opacity="1" class="highcharts-point highcharts-color-3"></rect><rect x="94" y="209" width="3" height="7" fill="#d27878" opacity="1" class="highcharts-point highcharts-color-3"></rect><rect x="98" y="211" width="2" height="5" fill="#d27878" opacity="1" class="highcharts-point highcharts-color-3"></rect><rect x="101" y="210" width="3" height="6" fill="#d27878" opacity="1" class="highcharts-point highcharts-color-3"></rect><rect x="104" y="209" width="3" height="7" fill="#d27878" opacity="1" class="highcharts-point highcharts-color-3"></rect><rect x="108" y="209" width="2" height="7" fill="#d27878" opacity="1" class="highcharts-point highcharts-color-3"></rect><rect x="111" y="210" width="3" height="6" fill="#d27878" opacity="1" class="highcharts-point highcharts-color-3"></rect><rect x="114" y="211" width="3" height="5" fill="#d27878" opacity="1" class="highcharts-point highcharts-color-3"></rect><rect x="118" y="210" width="2" height="6" fill="#d27878" opacity="1" class="highcharts-point highcharts-color-3"></rect><rect x="121" y="212" width="3" height="4" fill="#d27878" opacity="1" class="highcharts-point highcharts-color-3"></rect><rect x="124" y="212" width="3" height="4" fill="#d27878" opacity="1" class="highcharts-point highcharts-color-3"></rect><rect x="128" y="213" width="2" height="3" fill="#d27878" opacity="1" class="highcharts-point highcharts-color-3"></rect><rect x="131" y="213" width="3" height="3" fill="#d27878" opacity="1" class="highcharts-point highcharts-color-3"></rect><rect x="134" y="213" width="3" height="3" fill="#d27878" opacity="1" class="highcharts-point highcharts-color-3"></rect><rect x="138" y="213" width="2" height="3" fill="#d27878" opacity="1" class="highcharts-point highcharts-color-3"></rect><rect x="141" y="213" width="3" height="3" fill="#d27878" opacity="1" class="highcharts-point highcharts-color-3"></rect><rect x="145" y="212" width="2" height="4" fill="#d27878" opacity="1" class="highcharts-point highcharts-color-3"></rect><rect x="148" y="212" width="3" height="4" fill="#d27878" opacity="1" class="highcharts-point highcharts-color-3"></rect><rect x="151" y="212" width="3" height="4" fill="#d27878" opacity="1" class="highcharts-point highcharts-color-3"></rect><rect x="155" y="214" width="2" height="2" fill="#d27878" opacity="1" class="highcharts-point highcharts-color-3"></rect><rect x="158" y="214" width="3" height="2" fill="#d27878" opacity="1" class="highcharts-point highcharts-color-3"></rect><rect x="161" y="214" width="3" height="2" fill="#d27878" opacity="1" class="highcharts-point highcharts-color-3"></rect><rect x="165" y="214" width="2" height="2" fill="#d27878" opacity="1" class="highcharts-point highcharts-color-3"></rect><rect x="168" y="214" width="3" height="2" fill="#d27878" opacity="1" class="highcharts-point highcharts-color-3"></rect><rect x="171" y="214" width="3" height="2" fill="#d27878" opacity="1" class="highcharts-point highcharts-color-3"></rect><rect x="175" y="214" width="2" height="2" fill="#d27878" opacity="1" class="highcharts-point highcharts-color-3"></rect><rect x="178" y="213" width="3" height="3" fill="#d27878" opacity="1" class="highcharts-point highcharts-color-3"></rect><rect x="181" y="213" width="3" height="3" fill="#d27878" opacity="1" class="highcharts-point highcharts-color-3"></rect><rect x="185" y="213" width="2" height="3" fill="#d27878" opacity="1" class="highcharts-point highcharts-color-3"></rect><rect x="188" y="213" width="3" height="3" fill="#d27878" opacity="1" class="highcharts-point highcharts-color-3"></rect><rect x="191" y="210" width="3" height="6" fill="#d27878" opacity="1" class="highcharts-point highcharts-color-3"></rect><rect x="195" y="210" width="2" height="6" fill="#d27878" opacity="1" class="highcharts-point highcharts-color-3"></rect><rect x="198" y="211" width="3" height="5" fill="#d27878" opacity="1" class="highcharts-point highcharts-color-3"></rect><rect x="202" y="212" width="2" height="4" fill="#d27878" opacity="1" class="highcharts-point highcharts-color-3"></rect><rect x="205" y="208" width="3" height="8" fill="#d27878" opacity="1" class="highcharts-point highcharts-color-3"></rect><rect x="208" y="210" width="3" height="6" fill="#d27878" opacity="1" class="highcharts-point highcharts-color-3"></rect><rect x="212" y="208" width="2" height="8" fill="#d27878" opacity="1" class="highcharts-point highcharts-color-3"></rect><rect x="215" y="204" width="3" height="12" fill="#d27878" opacity="1" class="highcharts-point highcharts-color-3"></rect><rect x="218" y="189" width="3" height="27" fill="#d27878" opacity="1" class="highcharts-point highcharts-color-3"></rect><rect x="222" y="167" width="2" height="49" fill="#d27878" opacity="1" class="highcharts-point highcharts-color-3"></rect><rect x="225" y="153" width="3" height="63" fill="#d27878" opacity="1" class="highcharts-point highcharts-color-3"></rect></g><g data-z-index="0.1" class="highcharts-markers highcharts-series-3 highcharts-column-series highcharts-color-3" transform="translate(81,10) scale(1 1)" clip-path="none" opacity="1"></g></g><text x="160" text-anchor="middle" class="highcharts-title" data-z-index="4" style="color:#333333;font-size:18px;fill:#333333;" y="24"></text><text x="160" text-anchor="middle" class="highcharts-subtitle" data-z-index="4" style="color:#666666;fill:#666666;" y="24"></text><text x="10" text-anchor="start" class="highcharts-caption" data-z-index="4" style="color:#666666;fill:#666666;" y="333"></text><g class="highcharts-legend" data-z-index="7" transform="translate(65,274)"><rect fill="#000" class="highcharts-legend-box" rx="0" ry="0" x="0" y="0" width="188" height="47" visibility="visible"></rect><g data-z-index="1"><g><g class="highcharts-legend-item highcharts-column-series highcharts-color-0 highcharts-series-0" data-z-index="1" transform="translate(8,3)"><text x="21" style="color:#c0c0c0;cursor:pointer;font-size:12px;font-weight:bold;fill:#c0c0c0;" text-anchor="start" data-z-index="2" y="15"><tspan>우주잔해물</tspan></text><rect x="2" y="4" width="12" height="12" fill="#55865d" rx="6" ry="6" class="highcharts-point" data-z-index="3"></rect></g><g class="highcharts-legend-item highcharts-column-series highcharts-color-1 highcharts-series-1" data-z-index="1" transform="translate(104.203125,3)"><text x="21" y="15" style="color:#c0c0c0;cursor:pointer;font-size:12px;font-weight:bold;fill:#c0c0c0;" text-anchor="start" data-z-index="2"><tspan>로켓</tspan></text><rect x="2" y="4" width="12" height="12" fill="#b99639" rx="6" ry="6" class="highcharts-point" data-z-index="3"></rect></g><g class="highcharts-legend-item highcharts-column-series highcharts-color-2 highcharts-series-2" data-z-index="1" transform="translate(8,21)"><text x="21" y="15" style="color:#c0c0c0;cursor:pointer;font-size:12px;font-weight:bold;fill:#c0c0c0;" text-anchor="start" data-z-index="2"><tspan>위성운반체</tspan></text><rect x="2" y="4" width="12" height="12" fill="#5e8bad" rx="6" ry="6" class="highcharts-point" data-z-index="3"></rect></g><g class="highcharts-legend-item highcharts-column-series highcharts-color-3 highcharts-series-3" data-z-index="1" transform="translate(104.203125,21)"><text x="21" y="15" style="color:#c0c0c0;cursor:pointer;font-size:12px;font-weight:bold;fill:#c0c0c0;" text-anchor="start" data-z-index="2"><tspan>위성체</tspan></text><rect x="2" y="4" width="12" height="12" fill="#d27878" rx="6" ry="6" class="highcharts-point" data-z-index="3"></rect></g></g></g></g><g class="highcharts-axis-labels highcharts-xaxis-labels" data-z-index="7"><text x="85.26919545258568" style="color:#666666;cursor:default;font-size:11px;fill:#666666;" text-anchor="end" transform="translate(0,0) rotate(-45 85.26919545258568 241)" y="241" opacity="1">1957</text><text x="226.09272486435069" style="color:#666666;cursor:default;font-size:11px;fill:#666666;" text-anchor="end" transform="translate(0,0) rotate(-45 226.09272486435069 241)" y="241" opacity="1">1999</text><text x="105.38684251141068" style="color:#666666;cursor:default;font-size:11px;fill:#666666;" text-anchor="end" transform="translate(0,0) rotate(-45 105.38684251141068 241)" y="241" opacity="1">1963</text><text x="125.50448957023067" style="color:#666666;cursor:default;font-size:11px;fill:#666666;" text-anchor="end" transform="translate(0,0) rotate(-45 125.50448957023067 241)" y="241" opacity="1">1969</text><text x="145.6221366290607" style="color:#666666;cursor:default;font-size:11px;fill:#666666;" text-anchor="end" transform="translate(0,0) rotate(-45 145.6221366290607 241)" y="241" opacity="1">1975</text><text x="165.73978368788067" style="color:#666666;cursor:default;font-size:11px;fill:#666666;" text-anchor="end" transform="translate(0,0) rotate(-45 165.73978368788067 241)" y="241" opacity="1">1981</text><text x="185.8574307467007" style="color:#666666;cursor:default;font-size:11px;fill:#666666;" text-anchor="end" transform="translate(0,0) rotate(-45 185.8574307467007 241)" y="241" opacity="1">1987</text><text x="205.97507780553067" style="color:#666666;cursor:default;font-size:11px;fill:#666666;" text-anchor="end" transform="translate(0,0) rotate(-45 205.97507780553067 241)" y="241" opacity="1">1993</text><text x="246.2103719231707" style="color:#666666;cursor:default;font-size:11px;fill:#666666;" text-anchor="end" transform="translate(0,0) rotate(-45 246.2103719231707 241)" y="241" opacity="1">2005</text><text x="266.3280189820007" style="color:#666666;cursor:default;font-size:11px;fill:#666666;" text-anchor="end" transform="translate(0,0) rotate(-45 266.3280189820007 241)" y="241" opacity="1">2011</text><text x="286.44566604082064" style="color:#666666;cursor:default;font-size:11px;fill:#666666;" text-anchor="end" transform="translate(0,0) rotate(-45 286.44566604082064 241)" y="241" opacity="1">2017</text><text x="306.56331309964065" style="color:#666666;cursor:default;font-size:11px;fill:#666666;" text-anchor="end" transform="translate(0,0) rotate(-45 306.56331309964065 241)" y="241" opacity="1">2023</text></g><g class="highcharts-axis-labels highcharts-yaxis-labels" data-z-index="7"><text x="66" style="color:#666666;cursor:default;font-size:11px;fill:#666666;" text-anchor="end" transform="translate(0,0)" y="229" opacity="1">0</text><text x="66" style="color:#666666;cursor:default;font-size:11px;fill:#666666;" text-anchor="end" transform="translate(0,0)" y="157" opacity="1">1,000</text><text x="66" style="color:#666666;cursor:default;font-size:11px;fill:#666666;" text-anchor="end" transform="translate(0,0)" y="85" opacity="1">2,000</text><text x="66" style="color:#666666;cursor:default;font-size:11px;fill:#666666;" text-anchor="end" transform="translate(0,0)" y="14" opacity="1">3,000</text></g><g class="highcharts-label highcharts-tooltip     highcharts-color-0" style="pointer-events:none;white-space:nowrap;" data-z-index="8" transform="translate(466,-9999)" opacity="0" visibility="visible"><path fill="none" class="highcharts-label-box highcharts-tooltip-box highcharts-shadow" d="M 3.5 0.5 L 95.5 0.5 C 98.5 0.5 98.5 0.5 98.5 3.5 L 98.5 61.5 C 98.5 64.5 98.5 64.5 95.5 64.5 L 54.5 64.5 48.5 70.5 42.5 64.5 3.5 64.5 C 0.5 64.5 0.5 64.5 0.5 61.5 L 0.5 3.5 C 0.5 0.5 0.5 0.5 3.5 0.5" stroke="#000000" stroke-opacity="0.049999999999999996" stroke-width="5" transform="translate(1, 1)"></path><path fill="none" class="highcharts-label-box highcharts-tooltip-box highcharts-shadow" d="M 3.5 0.5 L 95.5 0.5 C 98.5 0.5 98.5 0.5 98.5 3.5 L 98.5 61.5 C 98.5 64.5 98.5 64.5 95.5 64.5 L 54.5 64.5 48.5 70.5 42.5 64.5 3.5 64.5 C 0.5 64.5 0.5 64.5 0.5 61.5 L 0.5 3.5 C 0.5 0.5 0.5 0.5 3.5 0.5" stroke="#000000" stroke-opacity="0.09999999999999999" stroke-width="3" transform="translate(1, 1)"></path><path fill="none" class="highcharts-label-box highcharts-tooltip-box highcharts-shadow" d="M 3.5 0.5 L 95.5 0.5 C 98.5 0.5 98.5 0.5 98.5 3.5 L 98.5 61.5 C 98.5 64.5 98.5 64.5 95.5 64.5 L 54.5 64.5 48.5 70.5 42.5 64.5 3.5 64.5 C 0.5 64.5 0.5 64.5 0.5 61.5 L 0.5 3.5 C 0.5 0.5 0.5 0.5 3.5 0.5" stroke="#000000" stroke-opacity="0.15" stroke-width="1" transform="translate(1, 1)"></path><path fill="rgba(247,247,247,0.85)" class="highcharts-label-box highcharts-tooltip-box" d="M 3.5 0.5 L 95.5 0.5 C 98.5 0.5 98.5 0.5 98.5 3.5 L 98.5 61.5 C 98.5 64.5 98.5 64.5 95.5 64.5 L 54.5 64.5 48.5 70.5 42.5 64.5 3.5 64.5 C 0.5 64.5 0.5 64.5 0.5 61.5 L 0.5 3.5 C 0.5 0.5 0.5 0.5 3.5 0.5" stroke="#55865d" stroke-width="1"></path><text x="8" data-z-index="1" style="font-size:12px;color:#333333;cursor:default;fill:#333333;" y="20"><tspan style="font-weight:bold">1991</tspan><tspan x="8" dy="15">우주잔해물: 399</tspan><tspan x="8" dy="15">Total: 570</tspan></text></g></svg>