<svg version="1.1" class="highcharts-root" style="font-family:&quot;Lucida Grande&quot;, &quot;Lucida Sans Unicode&quot;, Arial, Helvetica, sans-serif;font-size:12px;" xmlns="http://www.w3.org/2000/svg" width="319" height="336" viewBox="0 0 319 336"><desc>Created with Highcharts 7.2.1</desc><defs><clipPath id="highcharts-q88u7cx-275-"><rect x="0" y="0" width="222" height="197" fill="none"></rect></clipPath></defs><rect fill="#000" class="highcharts-background" x="0" y="0" width="319" height="336" rx="0" ry="0"></rect><rect fill="none" class="highcharts-plot-background" x="87" y="10" width="222" height="197"></rect><g class="highcharts-grid highcharts-xaxis-grid" data-z-index="1"><path fill="none" data-z-index="1" class="highcharts-grid-line" d="M 88.5 10 L 88.5 207" opacity="1"></path><path fill="none" data-z-index="1" class="highcharts-grid-line" d="M 202.5 10 L 202.5 207" opacity="1"></path><path fill="none" data-z-index="1" class="highcharts-grid-line" d="M 110.5 10 L 110.5 207" opacity="1"></path><path fill="none" data-z-index="1" class="highcharts-grid-line" d="M 133.5 10 L 133.5 207" opacity="1"></path><path fill="none" data-z-index="1" class="highcharts-grid-line" d="M 156.5 10 L 156.5 207" opacity="1"></path><path fill="none" data-z-index="1" class="highcharts-grid-line" d="M 179.5 10 L 179.5 207" opacity="1"></path><path fill="none" data-z-index="1" class="highcharts-grid-line" d="M 225.5 10 L 225.5 207" opacity="1"></path><path fill="none" data-z-index="1" class="highcharts-grid-line" d="M 248.5 10 L 248.5 207" opacity="1"></path><path fill="none" data-z-index="1" class="highcharts-grid-line" d="M 270.5 10 L 270.5 207" opacity="1"></path><path fill="none" data-z-index="1" class="highcharts-grid-line" d="M 293.5 10 L 293.5 207" opacity="1"></path></g><g class="highcharts-grid highcharts-yaxis-grid" data-z-index="1"><path fill="none" stroke="#444444" stroke-width="0.5" data-z-index="1" class="highcharts-grid-line" d="M 87 207.25 L 309 207.25" opacity="1"></path><path fill="none" stroke="#444444" stroke-width="0.5" data-z-index="1" class="highcharts-grid-line" d="M 87 141.25 L 309 141.25" opacity="1"></path><path fill="none" stroke="#444444" stroke-width="0.5" data-z-index="1" class="highcharts-grid-line" d="M 87 76.25 L 309 76.25" opacity="1"></path><path fill="none" stroke="#444444" stroke-width="0.5" data-z-index="1" class="highcharts-grid-line" d="M 87 9.75 L 309 9.75" opacity="1"></path></g><rect fill="none" class="highcharts-plot-border" data-z-index="1" x="87" y="10" width="222" height="197"></rect><g class="highcharts-axis highcharts-xaxis" data-z-index="2"><path fill="none" class="highcharts-axis-line" stroke="#ccd6eb" stroke-width="1" data-z-index="7" d="M 87 207.5 L 309 207.5"></path></g><g class="highcharts-axis highcharts-yaxis" data-z-index="2"><text x="25.642044067382812" data-z-index="7" text-anchor="middle" transform="translate(0,0) rotate(270 25.642044067382812 108.5)" class="highcharts-axis-title" style="color:#666666;fill:#666666;" y="108.5"><tspan>Number of Objects</tspan></text><path fill="none" class="highcharts-axis-line" data-z-index="7" d="M 87 10 L 87 207"></path></g><g class="highcharts-series-group" data-z-index="3"><g data-z-index="0.1" class="highcharts-series highcharts-series-0 highcharts-area-series highcharts-color-0" transform="translate(87,10) scale(1 1)" clip-path="url(#highcharts-q88u7cx-275-)" opacity="1"><path fill="rgba(119,65,129,0.75)" d="M 1.6323529411765 196.99212 L 4.8970588235294 196.97373333333334 L 8.1617647058824 196.93170666666666 L 11.426470588235 196.81876 L 14.691176470588 196.42213333333333 L 17.955882352941 195.63413333333332 L 21.220588235294 195.09304 L 24.485294117647 194.46001333333334 L 27.75 192.00408 L 31.014705882353 190.07085333333333 L 34.279411764706 188.8836 L 37.544117647059 187.43630666666667 L 40.808823529412 185.72897333333333 L 44.073529411765 184.27642666666668 L 47.338235294118 181.86252 L 50.602941176471 180.36794666666668 L 53.867647058824 178.36905333333334 L 57.132352941176 177.02945333333332 L 60.397058823529 174.59716 L 63.661764705882 171.63428 L 66.926470588235 169.28078666666667 L 70.191176470588 167.50778666666668 L 73.455882352941 166.39670666666666 L 76.720588235294 165.14116 L 79.985294117647 162.78504 L 83.25 160.86757333333333 L 86.514705882353 158.6244 L 89.779411764706 156.38385333333332 L 93.044117647059 153.80184 L 96.308823529412 151.58756 L 99.573529411765 147.75788 L 102.83823529412 145.12858666666668 L 106.10294117647 143.416 L 109.36764705882 141.71917333333334 L 112.63235294118 139.62572 L 115.89705882353 138.40957333333333 L 119.16176470588 136.70224000000002 L 122.42647058824 135.3784 L 125.69117647059 134.58777333333333 L 128.95588235294 132.09506666666667 L 132.22058823529 130.99186666666668 L 135.48529411765 129.74682666666666 L 138.75 128.57270666666668 L 142.01470588235 126.96518666666667 L 145.27941176471 125.64134666666668 L 148.54411764706 124.40156 L 151.80882352941 123.09610666666667 L 155.07352941176 122.09797333333334 L 158.33823529412 121.01841333333334 L 161.60294117647 118.96698666666667 L 164.86764705882 111.88812 L 168.13235294118 109.03556 L 171.39705882353 101.68877333333334 L 174.66176470588 98.91238666666668 L 177.92647058824 97.06846666666668 L 181.19117647059 94.41290666666667 L 184.45588235294 93.25454666666667 L 187.72058823529 90.96409333333334 L 190.98529411765 88.68414666666668 L 194.25 86.91640000000001 L 197.51470588235 83.79854666666668 L 200.77941176471 81.63942666666668 L 204.04411764706 79.02852000000001 L 207.30882352941 72.74553333333334 L 210.57352941176 63.57321333333334 L 213.83823529412 52.609506666666675 L 217.10294117647 42.96964 L 220.36764705882 35.58870666666667 L 220.36764705882 197 L 217.10294117647 197 L 213.83823529412 197 L 210.57352941176 197 L 207.30882352941 197 L 204.04411764706 197 L 200.77941176471 197 L 197.51470588235 197 L 194.25 197 L 190.98529411765 197 L 187.72058823529 197 L 184.45588235294 197 L 181.19117647059 197 L 177.92647058824 197 L 174.66176470588 197 L 171.39705882353 197 L 168.13235294118 197 L 164.86764705882 197 L 161.60294117647 197 L 158.33823529412 197 L 155.07352941176 197 L 151.80882352941 197 L 148.54411764706 197 L 145.27941176471 197 L 142.01470588235 197 L 138.75 197 L 135.48529411765 197 L 132.22058823529 197 L 128.95588235294 197 L 125.69117647059 197 L 122.42647058824 197 L 119.16176470588 197 L 115.89705882353 197 L 112.63235294118 197 L 109.36764705882 197 L 106.10294117647 197 L 102.83823529412 197 L 99.573529411765 197 L 96.308823529412 197 L 93.044117647059 197 L 89.779411764706 197 L 86.514705882353 197 L 83.25 197 L 79.985294117647 197 L 76.720588235294 197 L 73.455882352941 197 L 70.191176470588 197 L 66.926470588235 197 L 63.661764705882 197 L 60.397058823529 197 L 57.132352941176 197 L 53.867647058824 197 L 50.602941176471 197 L 47.338235294118 197 L 44.073529411765 197 L 40.808823529412 197 L 37.544117647059 197 L 34.279411764706 197 L 31.014705882353 197 L 27.75 197 L 24.485294117647 197 L 21.220588235294 197 L 17.955882352941 197 L 14.691176470588 197 L 11.426470588235 197 L 8.1617647058824 197 L 4.8970588235294 197 L 1.6323529411765 197" class="highcharts-area" data-z-index="0"></path><path fill="none" d="M 1.6323529411765 196.99212 L 4.8970588235294 196.97373333333334 L 8.1617647058824 196.93170666666666 L 11.426470588235 196.81876 L 14.691176470588 196.42213333333333 L 17.955882352941 195.63413333333332 L 21.220588235294 195.09304 L 24.485294117647 194.46001333333334 L 27.75 192.00408 L 31.014705882353 190.07085333333333 L 34.279411764706 188.8836 L 37.544117647059 187.43630666666667 L 40.808823529412 185.72897333333333 L 44.073529411765 184.27642666666668 L 47.338235294118 181.86252 L 50.602941176471 180.36794666666668 L 53.867647058824 178.36905333333334 L 57.132352941176 177.02945333333332 L 60.397058823529 174.59716 L 63.661764705882 171.63428 L 66.926470588235 169.28078666666667 L 70.191176470588 167.50778666666668 L 73.455882352941 166.39670666666666 L 76.720588235294 165.14116 L 79.985294117647 162.78504 L 83.25 160.86757333333333 L 86.514705882353 158.6244 L 89.779411764706 156.38385333333332 L 93.044117647059 153.80184 L 96.308823529412 151.58756 L 99.573529411765 147.75788 L 102.83823529412 145.12858666666668 L 106.10294117647 143.416 L 109.36764705882 141.71917333333334 L 112.63235294118 139.62572 L 115.89705882353 138.40957333333333 L 119.16176470588 136.70224000000002 L 122.42647058824 135.3784 L 125.69117647059 134.58777333333333 L 128.95588235294 132.09506666666667 L 132.22058823529 130.99186666666668 L 135.48529411765 129.74682666666666 L 138.75 128.57270666666668 L 142.01470588235 126.96518666666667 L 145.27941176471 125.64134666666668 L 148.54411764706 124.40156 L 151.80882352941 123.09610666666667 L 155.07352941176 122.09797333333334 L 158.33823529412 121.01841333333334 L 161.60294117647 118.96698666666667 L 164.86764705882 111.88812 L 168.13235294118 109.03556 L 171.39705882353 101.68877333333334 L 174.66176470588 98.91238666666668 L 177.92647058824 97.06846666666668 L 181.19117647059 94.41290666666667 L 184.45588235294 93.25454666666667 L 187.72058823529 90.96409333333334 L 190.98529411765 88.68414666666668 L 194.25 86.91640000000001 L 197.51470588235 83.79854666666668 L 200.77941176471 81.63942666666668 L 204.04411764706 79.02852000000001 L 207.30882352941 72.74553333333334 L 210.57352941176 63.57321333333334 L 213.83823529412 52.609506666666675 L 217.10294117647 42.96964 L 220.36764705882 35.58870666666667" class="highcharts-graph" data-z-index="1" stroke="#777777" stroke-width="1" stroke-linejoin="round" stroke-linecap="round"></path><path fill="none" d="M -8.3676470588235 196.99212 L 1.6323529411765 196.99212 L 4.8970588235294 196.97373333333334 L 8.1617647058824 196.93170666666666 L 11.426470588235 196.81876 L 14.691176470588 196.42213333333333 L 17.955882352941 195.63413333333332 L 21.220588235294 195.09304 L 24.485294117647 194.46001333333334 L 27.75 192.00408 L 31.014705882353 190.07085333333333 L 34.279411764706 188.8836 L 37.544117647059 187.43630666666667 L 40.808823529412 185.72897333333333 L 44.073529411765 184.27642666666668 L 47.338235294118 181.86252 L 50.602941176471 180.36794666666668 L 53.867647058824 178.36905333333334 L 57.132352941176 177.02945333333332 L 60.397058823529 174.59716 L 63.661764705882 171.63428 L 66.926470588235 169.28078666666667 L 70.191176470588 167.50778666666668 L 73.455882352941 166.39670666666666 L 76.720588235294 165.14116 L 79.985294117647 162.78504 L 83.25 160.86757333333333 L 86.514705882353 158.6244 L 89.779411764706 156.38385333333332 L 93.044117647059 153.80184 L 96.308823529412 151.58756 L 99.573529411765 147.75788 L 102.83823529412 145.12858666666668 L 106.10294117647 143.416 L 109.36764705882 141.71917333333334 L 112.63235294118 139.62572 L 115.89705882353 138.40957333333333 L 119.16176470588 136.70224000000002 L 122.42647058824 135.3784 L 125.69117647059 134.58777333333333 L 128.95588235294 132.09506666666667 L 132.22058823529 130.99186666666668 L 135.48529411765 129.74682666666666 L 138.75 128.57270666666668 L 142.01470588235 126.96518666666667 L 145.27941176471 125.64134666666668 L 148.54411764706 124.40156 L 151.80882352941 123.09610666666667 L 155.07352941176 122.09797333333334 L 158.33823529412 121.01841333333334 L 161.60294117647 118.96698666666667 L 164.86764705882 111.88812 L 168.13235294118 109.03556 L 171.39705882353 101.68877333333334 L 174.66176470588 98.91238666666668 L 177.92647058824 97.06846666666668 L 181.19117647059 94.41290666666667 L 184.45588235294 93.25454666666667 L 187.72058823529 90.96409333333334 L 190.98529411765 88.68414666666668 L 194.25 86.91640000000001 L 197.51470588235 83.79854666666668 L 200.77941176471 81.63942666666668 L 204.04411764706 79.02852000000001 L 207.30882352941 72.74553333333334 L 210.57352941176 63.57321333333334 L 213.83823529412 52.609506666666675 L 217.10294117647 42.96964 L 220.36764705882 35.58870666666667 L 230.36764705882 35.58870666666667" visibility="visible" data-z-index="2" class="highcharts-tracker-line" stroke-linejoin="round" stroke="rgba(192,192,192,0.0001)" stroke-width="21"></path></g><g data-z-index="0.1" class="highcharts-markers highcharts-series-0 highcharts-area-series highcharts-color-0 highcharts-tracker" transform="translate(87,10) scale(1 1)" opacity="1"><path fill="#774181" visibility="hidden" d="M 217 42.96964 A 0 0 0 1 1 217 42.96964 Z" class="highcharts-halo highcharts-color-0" data-z-index="-1" fill-opacity="0.25"></path><path fill="#774181" d="M 217 48.96964 A 6 6 0 1 1 217.005999999 48.96963700000025 Z" stroke="#ffffff" stroke-width="1" opacity="1" visibility="hidden"></path></g><g data-z-index="0.1" class="highcharts-series highcharts-series-1 highcharts-area-series highcharts-color-1" transform="translate(87,10) scale(1 1)" clip-path="url(#highcharts-q88u7cx-275-)" opacity="1"><path fill="rgba(180,71,71,0.75)" d="M 1.6323529411765 196.99212 L 4.8970588235294 196.97636 L 8.1617647058824 196.94746666666666 L 11.426470588235 196.86341333333334 L 14.691176470588 196.606 L 17.955882352941 196.05965333333333 L 21.220588235294 195.68141333333332 L 24.485294117647 195.19548 L 27.75 193.05474666666666 L 31.014705882353 191.4446 L 34.279411764706 190.5384 L 37.544117647059 189.34326666666666 L 40.808823529412 188.02205333333333 L 44.073529411765 187.03968 L 47.338235294118 185.24566666666666 L 50.602941176471 184.04528 L 53.867647058824 182.47190666666665 L 57.132352941176 181.5158 L 60.397058823529 179.59570666666667 L 63.661764705882 177.1424 L 66.926470588235 175.44557333333333 L 70.191176470588 174.39490666666666 L 73.455882352941 173.48345333333333 L 76.720588235294 172.48269333333334 L 79.985294117647 171.09844 L 83.25 169.70893333333333 L 86.514705882353 168.15657333333334 L 89.779411764706 166.45974666666666 L 93.044117647059 164.46610666666666 L 96.308823529412 162.67209333333335 L 99.573529411765 159.67244 L 102.83823529412 157.797 L 106.10294117647 156.55458666666667 L 109.36764705882 155.50917333333334 L 112.63235294118 154.43749333333335 L 115.89705882353 153.68364 L 119.16176470588 152.68025333333333 L 122.42647058824 151.9999466666667 L 125.69117647059 151.56392 L 128.95588235294 149.47309333333334 L 132.22058823529 148.79278666666667 L 135.48529411765 148.01529333333335 L 138.75 147.48208 L 142.01470588235 146.60477333333333 L 145.27941176471 145.89032 L 148.54411764706 145.01564000000002 L 151.80882352941 144.36422666666667 L 155.07352941176 143.84677333333335 L 158.33823529412 143.33194666666668 L 161.60294117647 142.10529333333335 L 164.86764705882 140.00396 L 168.13235294118 137.82908 L 171.39705882353 134.14912 L 174.66176470588 132.71758666666668 L 177.92647058824 132.01626666666667 L 181.19117647059 131.04702666666668 L 184.45588235294 130.62938666666668 L 187.72058823529 129.94908 L 190.98529411765 129.23462666666666 L 194.25 128.63049333333333 L 197.51470588235 127.50365333333333 L 200.77941176471 126.61058666666668 L 204.04411764706 125.21582666666667 L 207.30882352941 122.54188 L 210.57352941176 117.64052000000001 L 213.83823529412 113.40108000000001 L 217.10294117647 111.94328 L 220.36764705882 111.34702666666668 L 220.36764705882 197 L 217.10294117647 197 L 213.83823529412 197 L 210.57352941176 197 L 207.30882352941 197 L 204.04411764706 197 L 200.77941176471 197 L 197.51470588235 197 L 194.25 197 L 190.98529411765 197 L 187.72058823529 197 L 184.45588235294 197 L 181.19117647059 197 L 177.92647058824 197 L 174.66176470588 197 L 171.39705882353 197 L 168.13235294118 197 L 164.86764705882 197 L 161.60294117647 197 L 158.33823529412 197 L 155.07352941176 197 L 151.80882352941 197 L 148.54411764706 197 L 145.27941176471 197 L 142.01470588235 197 L 138.75 197 L 135.48529411765 197 L 132.22058823529 197 L 128.95588235294 197 L 125.69117647059 197 L 122.42647058824 197 L 119.16176470588 197 L 115.89705882353 197 L 112.63235294118 197 L 109.36764705882 197 L 106.10294117647 197 L 102.83823529412 197 L 99.573529411765 197 L 96.308823529412 197 L 93.044117647059 197 L 89.779411764706 197 L 86.514705882353 197 L 83.25 197 L 79.985294117647 197 L 76.720588235294 197 L 73.455882352941 197 L 70.191176470588 197 L 66.926470588235 197 L 63.661764705882 197 L 60.397058823529 197 L 57.132352941176 197 L 53.867647058824 197 L 50.602941176471 197 L 47.338235294118 197 L 44.073529411765 197 L 40.808823529412 197 L 37.544117647059 197 L 34.279411764706 197 L 31.014705882353 197 L 27.75 197 L 24.485294117647 197 L 21.220588235294 197 L 17.955882352941 197 L 14.691176470588 197 L 11.426470588235 197 L 8.1617647058824 197 L 4.8970588235294 197 L 1.6323529411765 197" class="highcharts-area" data-z-index="0"></path><path fill="none" d="M 1.6323529411765 196.99212 L 4.8970588235294 196.97636 L 8.1617647058824 196.94746666666666 L 11.426470588235 196.86341333333334 L 14.691176470588 196.606 L 17.955882352941 196.05965333333333 L 21.220588235294 195.68141333333332 L 24.485294117647 195.19548 L 27.75 193.05474666666666 L 31.014705882353 191.4446 L 34.279411764706 190.5384 L 37.544117647059 189.34326666666666 L 40.808823529412 188.02205333333333 L 44.073529411765 187.03968 L 47.338235294118 185.24566666666666 L 50.602941176471 184.04528 L 53.867647058824 182.47190666666665 L 57.132352941176 181.5158 L 60.397058823529 179.59570666666667 L 63.661764705882 177.1424 L 66.926470588235 175.44557333333333 L 70.191176470588 174.39490666666666 L 73.455882352941 173.48345333333333 L 76.720588235294 172.48269333333334 L 79.985294117647 171.09844 L 83.25 169.70893333333333 L 86.514705882353 168.15657333333334 L 89.779411764706 166.45974666666666 L 93.044117647059 164.46610666666666 L 96.308823529412 162.67209333333335 L 99.573529411765 159.67244 L 102.83823529412 157.797 L 106.10294117647 156.55458666666667 L 109.36764705882 155.50917333333334 L 112.63235294118 154.43749333333335 L 115.89705882353 153.68364 L 119.16176470588 152.68025333333333 L 122.42647058824 151.9999466666667 L 125.69117647059 151.56392 L 128.95588235294 149.47309333333334 L 132.22058823529 148.79278666666667 L 135.48529411765 148.01529333333335 L 138.75 147.48208 L 142.01470588235 146.60477333333333 L 145.27941176471 145.89032 L 148.54411764706 145.01564000000002 L 151.80882352941 144.36422666666667 L 155.07352941176 143.84677333333335 L 158.33823529412 143.33194666666668 L 161.60294117647 142.10529333333335 L 164.86764705882 140.00396 L 168.13235294118 137.82908 L 171.39705882353 134.14912 L 174.66176470588 132.71758666666668 L 177.92647058824 132.01626666666667 L 181.19117647059 131.04702666666668 L 184.45588235294 130.62938666666668 L 187.72058823529 129.94908 L 190.98529411765 129.23462666666666 L 194.25 128.63049333333333 L 197.51470588235 127.50365333333333 L 200.77941176471 126.61058666666668 L 204.04411764706 125.21582666666667 L 207.30882352941 122.54188 L 210.57352941176 117.64052000000001 L 213.83823529412 113.40108000000001 L 217.10294117647 111.94328 L 220.36764705882 111.34702666666668" class="highcharts-graph" data-z-index="1" stroke="#777777" stroke-width="1" stroke-linejoin="round" stroke-linecap="round"></path><path fill="none" d="M -8.3676470588235 196.99212 L 1.6323529411765 196.99212 L 4.8970588235294 196.97636 L 8.1617647058824 196.94746666666666 L 11.426470588235 196.86341333333334 L 14.691176470588 196.606 L 17.955882352941 196.05965333333333 L 21.220588235294 195.68141333333332 L 24.485294117647 195.19548 L 27.75 193.05474666666666 L 31.014705882353 191.4446 L 34.279411764706 190.5384 L 37.544117647059 189.34326666666666 L 40.808823529412 188.02205333333333 L 44.073529411765 187.03968 L 47.338235294118 185.24566666666666 L 50.602941176471 184.04528 L 53.867647058824 182.47190666666665 L 57.132352941176 181.5158 L 60.397058823529 179.59570666666667 L 63.661764705882 177.1424 L 66.926470588235 175.44557333333333 L 70.191176470588 174.39490666666666 L 73.455882352941 173.48345333333333 L 76.720588235294 172.48269333333334 L 79.985294117647 171.09844 L 83.25 169.70893333333333 L 86.514705882353 168.15657333333334 L 89.779411764706 166.45974666666666 L 93.044117647059 164.46610666666666 L 96.308823529412 162.67209333333335 L 99.573529411765 159.67244 L 102.83823529412 157.797 L 106.10294117647 156.55458666666667 L 109.36764705882 155.50917333333334 L 112.63235294118 154.43749333333335 L 115.89705882353 153.68364 L 119.16176470588 152.68025333333333 L 122.42647058824 151.9999466666667 L 125.69117647059 151.56392 L 128.95588235294 149.47309333333334 L 132.22058823529 148.79278666666667 L 135.48529411765 148.01529333333335 L 138.75 147.48208 L 142.01470588235 146.60477333333333 L 145.27941176471 145.89032 L 148.54411764706 145.01564000000002 L 151.80882352941 144.36422666666667 L 155.07352941176 143.84677333333335 L 158.33823529412 143.33194666666668 L 161.60294117647 142.10529333333335 L 164.86764705882 140.00396 L 168.13235294118 137.82908 L 171.39705882353 134.14912 L 174.66176470588 132.71758666666668 L 177.92647058824 132.01626666666667 L 181.19117647059 131.04702666666668 L 184.45588235294 130.62938666666668 L 187.72058823529 129.94908 L 190.98529411765 129.23462666666666 L 194.25 128.63049333333333 L 197.51470588235 127.50365333333333 L 200.77941176471 126.61058666666668 L 204.04411764706 125.21582666666667 L 207.30882352941 122.54188 L 210.57352941176 117.64052000000001 L 213.83823529412 113.40108000000001 L 217.10294117647 111.94328 L 220.36764705882 111.34702666666668 L 230.36764705882 111.34702666666668" visibility="visible" data-z-index="2" class="highcharts-tracker-line" stroke-linejoin="round" stroke="rgba(192,192,192,0.0001)" stroke-width="21"></path></g><g data-z-index="0.1" class="highcharts-markers highcharts-series-1 highcharts-area-series highcharts-color-1 highcharts-tracker" transform="translate(87,10) scale(1 1)" opacity="1"><path fill="#b44747" visibility="hidden" d="M 168 137.82908 A 0 0 0 1 1 168 137.82908 Z" class="highcharts-halo highcharts-color-1" data-z-index="-1" fill-opacity="0.25"></path><path fill="#b44747" d="M 168 131.82908 L 174 137.82908 168 143.82908 162 137.82908 Z" stroke="#ffffff" stroke-width="1" opacity="1" visibility="hidden"></path></g><g data-z-index="0.1" class="highcharts-series highcharts-series-2 highcharts-area-series highcharts-color-2" transform="translate(87,10) scale(1 1)" clip-path="url(#highcharts-q88u7cx-275-)" opacity="1"><path fill="rgba(78,120,61,0.75)" d="M 1.6323529411765 197 L 4.8970588235294 196.99737333333334 L 8.1617647058824 196.98424 L 11.426470588235 196.95534666666666 L 14.691176470588 196.81613333333334 L 17.955882352941 196.57448 L 21.220588235294 196.41162666666668 L 24.485294117647 196.26453333333333 L 27.75 195.94933333333333 L 31.014705882353 195.62625333333332 L 34.279411764706 195.3452 L 37.544117647059 195.09304 L 40.808823529412 194.70692 L 44.073529411765 194.23674666666668 L 47.338235294118 193.61685333333332 L 50.602941176471 193.32266666666666 L 53.867647058824 192.89714666666666 L 57.132352941176 192.51365333333334 L 60.397058823529 192.00145333333333 L 63.661764705882 191.49188 L 66.926470588235 190.83521333333334 L 70.191176470588 190.11288 L 73.455882352941 189.91325333333333 L 76.720588235294 189.65846666666667 L 79.985294117647 188.6866 L 83.25 188.15864 L 86.514705882353 187.46782666666667 L 89.779411764706 186.92410666666666 L 93.044117647059 186.33573333333334 L 96.308823529412 185.91546666666667 L 99.573529411765 185.08544 L 102.83823529412 184.33158666666668 L 106.10294117647 183.86141333333333 L 109.36764705882 183.21 L 112.63235294118 182.18822666666668 L 115.89705882353 181.72593333333333 L 119.16176470588 181.02198666666666 L 122.42647058824 180.37845333333334 L 125.69117647059 180.02385333333334 L 128.95588235294 179.62197333333333 L 132.22058823529 179.19908 L 135.48529411765 178.73153333333335 L 138.75 178.09062666666668 L 142.01470588235 177.36041333333333 L 145.27941176471 176.75102666666666 L 148.54411764706 176.38592 L 151.80882352941 175.73188 L 155.07352941176 175.2512 L 158.33823529412 174.68646666666666 L 161.60294117647 173.86169333333333 L 164.86764705882 168.88416 L 168.13235294118 168.20648 L 171.39705882353 164.53965333333332 L 174.66176470588 163.1948 L 177.92647058824 162.0522 L 181.19117647059 160.36588 L 184.45588235294 159.62516 L 187.72058823529 158.01501333333334 L 190.98529411765 156.44952 L 194.25 155.28590666666668 L 197.51470588235 153.29489333333333 L 200.77941176471 152.02884 L 204.04411764706 150.81269333333333 L 207.30882352941 147.20365333333334 L 210.57352941176 142.93269333333333 L 213.83823529412 136.20842666666667 L 217.10294117647 128.02636 L 220.36764705882 121.24168 L 220.36764705882 197 L 217.10294117647 197 L 213.83823529412 197 L 210.57352941176 197 L 207.30882352941 197 L 204.04411764706 197 L 200.77941176471 197 L 197.51470588235 197 L 194.25 197 L 190.98529411765 197 L 187.72058823529 197 L 184.45588235294 197 L 181.19117647059 197 L 177.92647058824 197 L 174.66176470588 197 L 171.39705882353 197 L 168.13235294118 197 L 164.86764705882 197 L 161.60294117647 197 L 158.33823529412 197 L 155.07352941176 197 L 151.80882352941 197 L 148.54411764706 197 L 145.27941176471 197 L 142.01470588235 197 L 138.75 197 L 135.48529411765 197 L 132.22058823529 197 L 128.95588235294 197 L 125.69117647059 197 L 122.42647058824 197 L 119.16176470588 197 L 115.89705882353 197 L 112.63235294118 197 L 109.36764705882 197 L 106.10294117647 197 L 102.83823529412 197 L 99.573529411765 197 L 96.308823529412 197 L 93.044117647059 197 L 89.779411764706 197 L 86.514705882353 197 L 83.25 197 L 79.985294117647 197 L 76.720588235294 197 L 73.455882352941 197 L 70.191176470588 197 L 66.926470588235 197 L 63.661764705882 197 L 60.397058823529 197 L 57.132352941176 197 L 53.867647058824 197 L 50.602941176471 197 L 47.338235294118 197 L 44.073529411765 197 L 40.808823529412 197 L 37.544117647059 197 L 34.279411764706 197 L 31.014705882353 197 L 27.75 197 L 24.485294117647 197 L 21.220588235294 197 L 17.955882352941 197 L 14.691176470588 197 L 11.426470588235 197 L 8.1617647058824 197 L 4.8970588235294 197 L 1.6323529411765 197" class="highcharts-area" data-z-index="0"></path><path fill="none" d="M 1.6323529411765 197 L 4.8970588235294 196.99737333333334 L 8.1617647058824 196.98424 L 11.426470588235 196.95534666666666 L 14.691176470588 196.81613333333334 L 17.955882352941 196.57448 L 21.220588235294 196.41162666666668 L 24.485294117647 196.26453333333333 L 27.75 195.94933333333333 L 31.014705882353 195.62625333333332 L 34.279411764706 195.3452 L 37.544117647059 195.09304 L 40.808823529412 194.70692 L 44.073529411765 194.23674666666668 L 47.338235294118 193.61685333333332 L 50.602941176471 193.32266666666666 L 53.867647058824 192.89714666666666 L 57.132352941176 192.51365333333334 L 60.397058823529 192.00145333333333 L 63.661764705882 191.49188 L 66.926470588235 190.83521333333334 L 70.191176470588 190.11288 L 73.455882352941 189.91325333333333 L 76.720588235294 189.65846666666667 L 79.985294117647 188.6866 L 83.25 188.15864 L 86.514705882353 187.46782666666667 L 89.779411764706 186.92410666666666 L 93.044117647059 186.33573333333334 L 96.308823529412 185.91546666666667 L 99.573529411765 185.08544 L 102.83823529412 184.33158666666668 L 106.10294117647 183.86141333333333 L 109.36764705882 183.21 L 112.63235294118 182.18822666666668 L 115.89705882353 181.72593333333333 L 119.16176470588 181.02198666666666 L 122.42647058824 180.37845333333334 L 125.69117647059 180.02385333333334 L 128.95588235294 179.62197333333333 L 132.22058823529 179.19908 L 135.48529411765 178.73153333333335 L 138.75 178.09062666666668 L 142.01470588235 177.36041333333333 L 145.27941176471 176.75102666666666 L 148.54411764706 176.38592 L 151.80882352941 175.73188 L 155.07352941176 175.2512 L 158.33823529412 174.68646666666666 L 161.60294117647 173.86169333333333 L 164.86764705882 168.88416 L 168.13235294118 168.20648 L 171.39705882353 164.53965333333332 L 174.66176470588 163.1948 L 177.92647058824 162.0522 L 181.19117647059 160.36588 L 184.45588235294 159.62516 L 187.72058823529 158.01501333333334 L 190.98529411765 156.44952 L 194.25 155.28590666666668 L 197.51470588235 153.29489333333333 L 200.77941176471 152.02884 L 204.04411764706 150.81269333333333 L 207.30882352941 147.20365333333334 L 210.57352941176 142.93269333333333 L 213.83823529412 136.20842666666667 L 217.10294117647 128.02636 L 220.36764705882 121.24168" class="highcharts-graph" data-z-index="1" stroke="#777777" stroke-width="1" stroke-linejoin="round" stroke-linecap="round"></path><path fill="none" d="M -8.3676470588235 197 L 1.6323529411765 197 L 4.8970588235294 196.99737333333334 L 8.1617647058824 196.98424 L 11.426470588235 196.95534666666666 L 14.691176470588 196.81613333333334 L 17.955882352941 196.57448 L 21.220588235294 196.41162666666668 L 24.485294117647 196.26453333333333 L 27.75 195.94933333333333 L 31.014705882353 195.62625333333332 L 34.279411764706 195.3452 L 37.544117647059 195.09304 L 40.808823529412 194.70692 L 44.073529411765 194.23674666666668 L 47.338235294118 193.61685333333332 L 50.602941176471 193.32266666666666 L 53.867647058824 192.89714666666666 L 57.132352941176 192.51365333333334 L 60.397058823529 192.00145333333333 L 63.661764705882 191.49188 L 66.926470588235 190.83521333333334 L 70.191176470588 190.11288 L 73.455882352941 189.91325333333333 L 76.720588235294 189.65846666666667 L 79.985294117647 188.6866 L 83.25 188.15864 L 86.514705882353 187.46782666666667 L 89.779411764706 186.92410666666666 L 93.044117647059 186.33573333333334 L 96.308823529412 185.91546666666667 L 99.573529411765 185.08544 L 102.83823529412 184.33158666666668 L 106.10294117647 183.86141333333333 L 109.36764705882 183.21 L 112.63235294118 182.18822666666668 L 115.89705882353 181.72593333333333 L 119.16176470588 181.02198666666666 L 122.42647058824 180.37845333333334 L 125.69117647059 180.02385333333334 L 128.95588235294 179.62197333333333 L 132.22058823529 179.19908 L 135.48529411765 178.73153333333335 L 138.75 178.09062666666668 L 142.01470588235 177.36041333333333 L 145.27941176471 176.75102666666666 L 148.54411764706 176.38592 L 151.80882352941 175.73188 L 155.07352941176 175.2512 L 158.33823529412 174.68646666666666 L 161.60294117647 173.86169333333333 L 164.86764705882 168.88416 L 168.13235294118 168.20648 L 171.39705882353 164.53965333333332 L 174.66176470588 163.1948 L 177.92647058824 162.0522 L 181.19117647059 160.36588 L 184.45588235294 159.62516 L 187.72058823529 158.01501333333334 L 190.98529411765 156.44952 L 194.25 155.28590666666668 L 197.51470588235 153.29489333333333 L 200.77941176471 152.02884 L 204.04411764706 150.81269333333333 L 207.30882352941 147.20365333333334 L 210.57352941176 142.93269333333333 L 213.83823529412 136.20842666666667 L 217.10294117647 128.02636 L 220.36764705882 121.24168 L 230.36764705882 121.24168" visibility="visible" data-z-index="2" class="highcharts-tracker-line" stroke-linejoin="round" stroke="rgba(192,192,192,0.0001)" stroke-width="21"></path></g><g data-z-index="0.1" class="highcharts-markers highcharts-series-2 highcharts-area-series highcharts-color-2 highcharts-tracker" transform="translate(87,10) scale(1 1)" opacity="1"><path fill="#4e783d" visibility="hidden" d="M 181 160.36588 A 0 0 0 1 1 181 160.36588 Z" class="highcharts-halo highcharts-color-2" data-z-index="-1" fill-opacity="0.25"></path><path fill="#4e783d" d="M 175 154.36588 L 187 154.36588 187 166.36588 175 166.36588 Z" stroke="#ffffff" stroke-width="1" opacity="1" visibility="hidden"></path></g></g><text x="160" text-anchor="middle" class="highcharts-title" data-z-index="4" style="color:#333333;font-size:18px;fill:#333333;" y="24"></text><text x="160" text-anchor="middle" class="highcharts-subtitle" data-z-index="4" style="color:#666666;fill:#666666;" y="24"></text><text x="10" text-anchor="start" class="highcharts-caption" data-z-index="4" style="color:#666666;fill:#666666;" y="333"></text><g class="highcharts-legend" data-z-index="7" transform="translate(78,256)"><rect fill="#000" class="highcharts-legend-box" rx="0" ry="0" x="0" y="0" width="163" height="65" visibility="visible"></rect><g data-z-index="1"><g><g class="highcharts-legend-item highcharts-area-series highcharts-color-0 highcharts-series-0" data-z-index="1" transform="translate(8,3)"><text x="21" style="color:#c0c0c0;cursor:pointer;font-size:12px;font-weight:bold;fill:#c0c0c0;" text-anchor="start" data-z-index="2" y="15"><tspan>등록된 인공우주물체</tspan></text><rect x="2" y="4" width="12" height="12" fill="#774181" rx="6" ry="6" class="highcharts-point" data-z-index="3"></rect></g><g class="highcharts-legend-item highcharts-area-series highcharts-color-1 highcharts-series-1" data-z-index="1" transform="translate(8,21)"><text x="21" y="15" style="color:#c0c0c0;cursor:pointer;font-size:12px;font-weight:bold;fill:#c0c0c0;" text-anchor="start" data-z-index="2"><tspan>추락한 인공우주물체</tspan></text><rect x="2" y="4" width="12" height="12" fill="#b44747" rx="6" ry="6" class="highcharts-point" data-z-index="3"></rect></g><g class="highcharts-legend-item highcharts-area-series highcharts-color-2 highcharts-series-2" data-z-index="1" transform="translate(8,39)"><text x="21" y="15" style="color:#c0c0c0;cursor:pointer;font-size:12px;font-weight:bold;fill:#c0c0c0;" text-anchor="start" data-z-index="2"><tspan>궤도에 남은 인공우주물체</tspan></text><rect x="2" y="4" width="12" height="12" fill="#4e783d" rx="6" ry="6" class="highcharts-point" data-z-index="3"></rect></g></g></g></g><g class="highcharts-axis-labels highcharts-xaxis-labels" data-z-index="7"><text x="91.22507780552667" style="color:#666666;cursor:default;font-size:11px;fill:#666666;" text-anchor="end" transform="translate(0,0) rotate(-45 91.22507780552667 223)" y="223" opacity="1">1957</text><text x="205.48978368788067" style="color:#666666;cursor:default;font-size:11px;fill:#666666;" text-anchor="end" transform="translate(0,0) rotate(-45 205.48978368788067 223)" y="223" opacity="1">1992</text><text x="114.07801898200067" style="color:#666666;cursor:default;font-size:11px;fill:#666666;" text-anchor="end" transform="translate(0,0) rotate(-45 114.07801898200067 223)" y="223" opacity="1">1964</text><text x="136.9309601584707" style="color:#666666;cursor:default;font-size:11px;fill:#666666;" text-anchor="end" transform="translate(0,0) rotate(-45 136.9309601584707 223)" y="223" opacity="1">1971</text><text x="159.78390133494068" style="color:#666666;cursor:default;font-size:11px;fill:#666666;" text-anchor="end" transform="translate(0,0) rotate(-45 159.78390133494068 223)" y="223" opacity="1">1978</text><text x="182.6368425114107" style="color:#666666;cursor:default;font-size:11px;fill:#666666;" text-anchor="end" transform="translate(0,0) rotate(-45 182.6368425114107 223)" y="223" opacity="1">1985</text><text x="228.34272486435069" style="color:#666666;cursor:default;font-size:11px;fill:#666666;" text-anchor="end" transform="translate(0,0) rotate(-45 228.34272486435069 223)" y="223" opacity="1">1999</text><text x="251.1956660408207" style="color:#666666;cursor:default;font-size:11px;fill:#666666;" text-anchor="end" transform="translate(0,0) rotate(-45 251.1956660408207 223)" y="223" opacity="1">2006</text><text x="274.0486072172907" style="color:#666666;cursor:default;font-size:11px;fill:#666666;" text-anchor="end" transform="translate(0,0) rotate(-45 274.0486072172907 223)" y="223" opacity="1">2013</text><text x="296.90154839376066" style="color:#666666;cursor:default;font-size:11px;fill:#666666;" text-anchor="end" transform="translate(0,0) rotate(-45 296.90154839376066 223)" y="223" opacity="1">2020</text></g><g class="highcharts-axis-labels highcharts-yaxis-labels" data-z-index="7"><text x="72" style="color:#666666;cursor:default;font-size:11px;fill:#666666;" text-anchor="end" transform="translate(0,0)" y="211" opacity="1">0</text><text x="72" style="color:#666666;cursor:default;font-size:11px;fill:#666666;" text-anchor="end" transform="translate(0,0)" y="145" opacity="1">25,000</text><text x="72" style="color:#666666;cursor:default;font-size:11px;fill:#666666;" text-anchor="end" transform="translate(0,0)" y="79" opacity="1">50,000</text><text x="72" style="color:#666666;cursor:default;font-size:11px;fill:#666666;" text-anchor="end" transform="translate(0,0)" y="14" opacity="1">75,000</text></g><g class="highcharts-label highcharts-tooltip                            highcharts-color-0" style="pointer-events:none;white-space:nowrap;" data-z-index="8" transform="translate(170,-9999)" opacity="0" visibility="visible"><path fill="none" class="highcharts-label-box highcharts-tooltip-box highcharts-shadow" d="M 3.5 0.5 L 115.5 0.5 C 118.5 0.5 118.5 0.5 118.5 3.5 L 118.5 26 124.5 32 118.5 38 118.5 61.5 C 118.5 64.5 118.5 64.5 115.5 64.5 L 3.5 64.5 C 0.5 64.5 0.5 64.5 0.5 61.5 L 0.5 3.5 C 0.5 0.5 0.5 0.5 3.5 0.5" stroke="#000000" stroke-opacity="0.049999999999999996" stroke-width="5" transform="translate(1, 1)"></path><path fill="none" class="highcharts-label-box highcharts-tooltip-box highcharts-shadow" d="M 3.5 0.5 L 115.5 0.5 C 118.5 0.5 118.5 0.5 118.5 3.5 L 118.5 26 124.5 32 118.5 38 118.5 61.5 C 118.5 64.5 118.5 64.5 115.5 64.5 L 3.5 64.5 C 0.5 64.5 0.5 64.5 0.5 61.5 L 0.5 3.5 C 0.5 0.5 0.5 0.5 3.5 0.5" stroke="#000000" stroke-opacity="0.09999999999999999" stroke-width="3" transform="translate(1, 1)"></path><path fill="none" class="highcharts-label-box highcharts-tooltip-box highcharts-shadow" d="M 3.5 0.5 L 115.5 0.5 C 118.5 0.5 118.5 0.5 118.5 3.5 L 118.5 26 124.5 32 118.5 38 118.5 61.5 C 118.5 64.5 118.5 64.5 115.5 64.5 L 3.5 64.5 C 0.5 64.5 0.5 64.5 0.5 61.5 L 0.5 3.5 C 0.5 0.5 0.5 0.5 3.5 0.5" stroke="#000000" stroke-opacity="0.15" stroke-width="1" transform="translate(1, 1)"></path><path fill="rgba(247,247,247,0.85)" class="highcharts-label-box highcharts-tooltip-box" d="M 3.5 0.5 L 115.5 0.5 C 118.5 0.5 118.5 0.5 118.5 3.5 L 118.5 26 124.5 32 118.5 38 118.5 61.5 C 118.5 64.5 118.5 64.5 115.5 64.5 L 3.5 64.5 C 0.5 64.5 0.5 64.5 0.5 61.5 L 0.5 3.5 C 0.5 0.5 0.5 0.5 3.5 0.5" stroke="#774181" stroke-width="1"></path><text x="8" data-z-index="1" style="font-size:12px;color:#333333;cursor:default;fill:#333333;" y="20"><tspan style="font-weight:bold">2023</tspan><tspan x="8" dy="15">등록된 인공우주물체</tspan><tspan x="8" dy="15">Total: 58,641</tspan></text></g></svg>